<svg width="39" height="38" viewBox="0 0 39 38" fill="none" xmlns="http://www.w3.org/2000/svg">
<path opacity="0.4" fill-rule="evenodd" clip-rule="evenodd" d="M10.3449 34.1406C11.1889 34.1406 11.8749 34.8266 11.8749 35.6706C11.8749 36.5146 11.1889 37.1986 10.3449 37.1986C9.50089 37.1986 8.81689 36.5146 8.81689 35.6706C8.81689 34.8266 9.50089 34.1406 10.3449 34.1406Z" stroke="white" stroke-width="1.5" stroke-linecap="round" stroke-linejoin="round"/>
<path opacity="0.4" fill-rule="evenodd" clip-rule="evenodd" d="M32.8496 34.1406C33.6936 34.1406 34.3796 34.8266 34.3796 35.6706C34.3796 36.5146 33.6936 37.1986 32.8496 37.1986C32.0056 37.1986 31.3196 36.5146 31.3196 35.6706C31.3196 34.8266 32.0056 34.1406 32.8496 34.1406Z" stroke="white" stroke-width="1.5" stroke-linecap="round" stroke-linejoin="round"/>
<path d="M1 1L5.16 1.72L7.086 24.666C7.242 26.536 8.804 27.972 10.68 27.972H32.504C34.296 27.972 35.816 26.656 36.074 24.88L37.972 11.764C38.206 10.146 36.952 8.698 35.318 8.698H5.828" stroke="white" stroke-width="1.5" stroke-linecap="round" stroke-linejoin="round"/>
<path opacity="0.4" d="M23.751 16.09H29.297" stroke="white" stroke-width="1.5" stroke-linecap="round" stroke-linejoin="round"/>
</svg>
