<svg width="32" height="31" viewBox="0 0 32 31" fill="none" xmlns="http://www.w3.org/2000/svg">
<path fill-rule="evenodd" clip-rule="evenodd" d="M8.57681 27.6957C9.26113 27.6957 9.81734 28.2519 9.81734 28.9362C9.81734 29.6205 9.26113 30.1751 8.57681 30.1751C7.89248 30.1751 7.33789 29.6205 7.33789 28.9362C7.33789 28.2519 7.89248 27.6957 8.57681 27.6957Z" stroke="white" stroke-width="1.5" stroke-linecap="round" stroke-linejoin="round"/>
<path fill-rule="evenodd" clip-rule="evenodd" d="M26.8239 27.6957C27.5082 27.6957 28.0644 28.2519 28.0644 28.9362C28.0644 29.6205 27.5082 30.1751 26.8239 30.1751C26.1396 30.1751 25.5834 29.6205 25.5834 28.9362C25.5834 28.2519 26.1396 27.6957 26.8239 27.6957Z" stroke="white" stroke-width="1.5" stroke-linecap="round" stroke-linejoin="round"/>
<path d="M1 0.824951L4.37296 1.40873L5.93458 20.0135C6.06107 21.5298 7.32755 22.6941 8.84862 22.6941H26.5437C27.9967 22.6941 29.2291 21.627 29.4383 20.1871L30.9772 9.55249C31.1669 8.2406 30.1502 7.06655 28.8253 7.06655H4.91458" stroke="white" stroke-width="1.5" stroke-linecap="round" stroke-linejoin="round"/>
<path d="M19.4467 13.0601H23.9434" stroke="white" stroke-width="1.5" stroke-linecap="round" stroke-linejoin="round"/>
</svg>
