<svg width="42" height="42" viewBox="0 0 42 42" fill="none" xmlns="http://www.w3.org/2000/svg">
<path fill-rule="evenodd" clip-rule="evenodd" d="M35.1427 35.1397C29.0304 41.2527 19.9795 42.5734 12.5728 39.148C11.4794 38.7078 10.583 38.352 9.73074 38.352C7.35698 38.3661 4.40233 40.6677 2.86672 39.134C1.33111 37.5982 3.63453 34.6412 3.63453 32.2531C3.63453 31.4008 3.29283 30.5203 2.85265 29.4248C-0.574339 22.0192 0.748218 12.9654 6.86052 6.85441C14.6632 -0.951136 27.34 -0.951136 35.1427 6.8524C42.9595 14.67 42.9454 27.3362 35.1427 35.1397Z" stroke="#E81E25" stroke-width="1.5" stroke-linecap="round" stroke-linejoin="round"/>
<path opacity="0.4" d="M28.8789 21.826H28.8969" stroke="#E81E25" stroke-width="2" stroke-linecap="round" stroke-linejoin="round"/>
<path opacity="0.4" d="M20.8608 21.826H20.8788" stroke="#E81E25" stroke-width="2" stroke-linecap="round" stroke-linejoin="round"/>
<path opacity="0.4" d="M12.8428 21.826H12.8608" stroke="#E81E25" stroke-width="2" stroke-linecap="round" stroke-linejoin="round"/>
</svg>
