<svg width="27" height="24" viewBox="0 0 27 24" fill="none" xmlns="http://www.w3.org/2000/svg">
<path fill-rule="evenodd" clip-rule="evenodd" d="M9.77727 0.00623141C9.75827 0.0104708 9.66496 0.0250465 9.56993 0.0386387C9.31326 0.0753072 9.15399 0.113462 8.76358 0.231706C8.60888 0.278579 8.5475 0.310134 8.47127 0.381985C8.20628 0.631737 8.39512 1.0668 8.76851 1.0668C8.82293 1.0668 8.93528 1.04346 9.01818 1.01494C9.41785 0.877447 9.97414 0.788966 10.2928 0.812195C10.8103 0.849935 11.2064 1.02106 11.567 1.36286C12.0305 1.80214 12.3735 2.52491 12.5516 3.4378C12.6208 3.79268 12.6623 4.14949 12.6382 4.18329C12.6296 4.19538 12.5546 4.25084 12.4717 4.30654C11.9804 4.63621 11.3072 5.44021 10.772 6.33616C10.6622 6.52009 10.6488 6.52442 10.5847 6.39647C10.3822 5.99178 9.78596 5.89865 9.44416 6.21826C9.10121 6.53897 9.18634 7.07637 9.616 7.303C9.73295 7.36469 9.76002 7.36985 9.96723 7.37004C10.2185 7.37028 10.213 7.36445 10.1224 7.53514C9.99907 7.76748 9.77375 8.31099 9.62865 8.7261C9.32848 9.58499 9.21331 10.1812 9.215 10.8676C9.21608 11.3099 9.2422 11.4999 9.3474 11.8302C9.50523 12.3257 9.72523 12.6979 10.0563 13.0296C10.1562 13.1298 10.238 13.2259 10.238 13.2432C10.238 13.2974 10.1669 13.4752 10.1352 13.5002C10.0949 13.5319 9.73129 13.5874 9.5603 13.5879C9.28268 13.5887 9.00071 13.5233 8.79086 13.4095C8.50069 13.2521 8.31578 12.9862 7.88491 12.1065C7.83598 12.0066 7.79596 11.9198 7.79596 11.9136C7.79596 11.879 7.61605 11.5515 7.54811 11.4624C7.4572 11.3432 7.45748 11.328 7.55479 11.0752C7.72404 10.6356 7.80156 10.1777 7.80264 9.61113C7.80333 9.24062 7.79115 9.10268 7.72438 8.7261C7.66593 8.39657 7.51257 7.88187 7.38901 7.6007C7.26684 7.32269 6.99636 6.85378 6.82834 6.62874C6.17539 5.75414 5.16948 5.17701 4.65609 5.38243C4.44432 5.46715 4.31786 5.71452 4.3174 6.04486C4.3168 6.4836 4.49116 6.85769 4.82971 7.14402C4.99072 7.28021 5.10046 7.46025 5.10046 7.58826C5.10046 7.65504 5.07862 7.68671 4.94495 7.81363C4.80312 7.94828 4.69125 8.11493 4.65068 8.25201C4.62139 8.35096 4.58177 8.28326 4.55626 8.09067C4.44427 7.24559 4.13676 6.7927 3.54176 6.59655C3.37434 6.54135 3.35722 6.52995 3.30921 6.4414C3.27196 6.37272 3.25738 6.30795 3.25738 6.2111C3.25738 6.05343 3.29806 5.9486 3.41779 5.79787C3.67854 5.4696 3.78445 5.1202 3.75563 4.68339C3.73413 4.35798 3.63286 4.02161 3.48364 3.78011C3.36268 3.58438 3.13269 3.37711 2.97428 3.32108C2.56525 3.17637 2.05686 3.36822 1.53329 3.86484C1.16638 4.21286 0.865218 4.65452 0.57355 5.27238C0.415345 5.60749 0.2165 6.25911 0.136464 6.70474C0.029473 7.30036 0.00120466 7.59246 2.9697e-05 8.11423C-0.000960959 8.56221 0.022377 8.74721 0.138906 9.21448C0.250435 9.66165 0.50713 10.1917 0.812598 10.6054C1.48343 11.5141 2.5054 12.2303 3.63751 12.5853C3.95337 12.6843 3.96228 12.6866 4.28259 12.7483C4.54394 12.7987 4.63787 12.806 5.01982 12.8061C5.49796 12.8062 5.70296 12.7767 6.0454 12.6586C6.14023 12.6258 6.24374 12.5979 6.27542 12.5965C6.33276 12.594 6.33304 12.5949 6.33972 12.8125C6.35126 13.1877 6.48 13.6671 6.66175 14.0114C6.83056 14.3313 7.11884 14.6735 7.37512 14.8582C7.4482 14.9109 7.51316 14.959 7.5195 14.9651C7.55627 15.0008 7.74571 15.1038 7.93516 15.1911C8.50935 15.4555 9.24255 15.5783 10.0385 15.5431L10.3804 15.528L10.3645 15.7436C10.3323 16.1805 10.4555 16.5204 10.7504 16.8086C10.8524 16.9083 10.8527 16.8938 10.7427 17.183C10.6718 17.3694 10.6678 17.3963 10.6661 17.6966C10.6639 18.0725 10.6979 18.1959 10.8734 18.4501C10.908 18.5001 10.9041 18.506 10.7276 18.6726C10.0987 19.2663 9.63561 19.8778 9.39838 20.4281C9.22962 20.8196 9.16327 21.2966 9.23248 21.6207C9.35161 22.1783 9.72401 22.6111 10.2611 22.816C10.5153 22.913 10.7089 22.9464 11.0427 22.9506C11.2852 22.9538 11.356 22.9614 11.3703 22.9861C11.3803 23.0035 11.4198 23.0914 11.4581 23.1815C11.6179 23.5575 11.9753 23.8284 12.4728 23.9507C12.6372 23.9912 12.7332 23.9991 13.0718 24C13.4697 24.001 13.6028 23.9855 13.8551 23.909C14.2889 23.7775 14.612 23.4861 14.7606 23.0922L14.8132 22.9529L15.1232 22.9499C15.4259 22.947 15.6144 22.9192 15.854 22.842C16.3636 22.6779 16.7687 22.2584 16.9182 21.7397C16.9873 21.4998 16.9838 21.1016 16.9099 20.8202C16.74 20.1726 16.2973 19.5017 15.5727 18.7935C15.2904 18.5175 15.2762 18.4994 15.3064 18.4544C15.4738 18.2046 15.5232 18.036 15.522 17.7184C15.521 17.4484 15.4809 17.2526 15.384 17.0437C15.3541 16.9791 15.3296 16.9228 15.3296 16.9185C15.3296 16.9142 15.3892 16.8483 15.462 16.772C15.5899 16.6381 15.7059 16.4475 15.7708 16.2652C15.7912 16.2077 15.8018 16.0688 15.8018 15.8595V15.5412L16.3317 15.5416C16.9114 15.542 17.2423 15.5082 17.6219 15.4098C18.0337 15.3029 18.2893 15.1954 18.601 14.9979C19.3374 14.5313 19.7866 13.7438 19.8381 12.8289C19.8534 12.558 19.863 12.5455 20.0029 12.6141C20.0953 12.6595 20.3365 12.7294 20.5478 12.772C20.8026 12.8235 21.4762 12.8227 21.7803 12.7706C22.5423 12.64 23.203 12.385 23.8999 11.9526C24.5 11.5802 25.0313 11.0838 25.4184 10.5337C25.5421 10.3579 25.8351 9.83962 25.8351 9.79663C25.8351 9.78837 25.85 9.75063 25.8682 9.71276C25.9214 9.60217 26.0118 9.33111 26.0631 9.12827C26.255 8.36971 26.213 7.34668 25.9457 6.26769C25.8767 5.98897 25.6857 5.42128 25.6484 5.38376C25.6371 5.37233 25.6278 5.35122 25.6278 5.33684C25.6278 5.30479 25.4032 4.85941 25.3038 4.69431C24.9065 4.03439 24.3441 3.51133 23.8423 3.33518C23.7365 3.29803 23.6527 3.28642 23.4852 3.28572C23.2216 3.28465 23.115 3.32672 22.9199 3.50888C22.6066 3.80133 22.4255 4.27746 22.4254 4.80873C22.4254 5.19994 22.4987 5.4317 22.7202 5.74033C22.9329 6.03678 22.9739 6.18433 22.8989 6.38386C22.8549 6.50099 22.8082 6.54236 22.6727 6.5844C22.1355 6.75107 21.8119 7.13445 21.6766 7.76459C21.6518 7.88032 21.596 8.24659 21.596 8.29395C21.596 8.29727 21.5827 8.29998 21.5665 8.29998C21.5503 8.29998 21.5233 8.25586 21.5065 8.20195C21.4674 8.07638 21.3263 7.88554 21.1778 7.75738C21.0718 7.66584 21.0624 7.65 21.0724 7.57963C21.0929 7.43512 21.1811 7.30149 21.3757 7.11999C21.7139 6.80463 21.8597 6.48047 21.8575 6.04917C21.8566 5.86423 21.8462 5.79461 21.8037 5.69026C21.6761 5.37696 21.3986 5.2707 20.997 5.38147C20.4027 5.5454 19.7202 6.0866 19.2492 6.76742C18.3561 8.05844 18.1168 9.88389 18.6679 11.2017C18.6945 11.2653 18.7162 11.3254 18.7162 11.3353C18.7162 11.3452 18.6865 11.3888 18.6502 11.4321C18.5787 11.5174 18.481 11.699 18.3129 12.0586C17.8197 13.1136 17.5723 13.4069 17.069 13.5334C16.8599 13.5859 16.5801 13.5985 16.3379 13.5663C16.0403 13.5267 16.0327 13.5229 15.9768 13.3812C15.9503 13.3139 15.9286 13.2511 15.9286 13.2417C15.9286 13.2323 16.0017 13.1516 16.0912 13.0623C16.5399 12.6144 16.8067 12.0936 16.9312 11.4225C16.9945 11.0813 16.9667 10.3211 16.8753 9.89521C16.8637 9.84112 16.8415 9.73787 16.826 9.66576C16.7041 9.10126 16.3602 8.14753 16.0575 7.53514C16.0249 7.46904 15.998 7.40479 15.9979 7.39236C15.9978 7.37844 16.0794 7.36972 16.2108 7.36963C16.3856 7.36952 16.4432 7.36056 16.5313 7.3197C16.8252 7.18342 17.0014 6.86835 16.9392 6.59002C16.8872 6.35755 16.7661 6.20273 16.558 6.10271C16.4401 6.04607 16.4001 6.03833 16.2281 6.03899C16.0695 6.0396 16.0108 6.04967 15.9198 6.09191C15.7798 6.15684 15.6569 6.27298 15.587 6.40639C15.5575 6.4626 15.5241 6.50313 15.5127 6.49645C15.5013 6.48976 15.4534 6.41835 15.4063 6.33775C15.1541 5.90628 14.7276 5.31431 14.3943 4.93307C14.205 4.71658 13.8419 4.38849 13.6758 4.28379L13.5441 4.20071L13.5458 4.03778C13.5511 3.55956 13.7822 2.68502 14.0416 2.16213C14.4334 1.37245 14.9435 0.959438 15.6785 0.836758C16.045 0.775571 16.4408 0.814162 16.9653 0.962235C17.3411 1.06833 17.4278 1.08046 17.546 1.04344C17.6666 1.0057 17.8072 0.85413 17.8262 0.741371C17.8584 0.55049 17.7673 0.379101 17.5873 0.291669C17.5557 0.276263 17.4261 0.233498 17.2993 0.196589C16.727 0.0299196 16.4134 -0.0135451 15.9058 0.00341249C15.5142 0.0165021 15.3789 0.0377864 15.0693 0.135096C14.2823 0.382422 13.6 1.04027 13.2078 1.92978C13.1195 2.12999 13.0651 2.18101 13.0374 2.08965C12.9926 1.94221 12.8004 1.57542 12.6506 1.35143C12.3713 0.933848 12.0882 0.653546 11.7061 0.41601C11.4 0.225784 11.1733 0.135467 10.7794 0.0468116C10.6536 0.0184689 9.86535 -0.0134577 9.77727 0.00623141ZM2.76682 4.25726C2.87243 4.4603 2.92187 4.74388 2.8868 4.94562C2.85549 5.12581 2.83379 5.16985 2.68399 5.35758C2.33798 5.7912 2.29335 6.43969 2.57852 6.89073C2.73171 7.13303 2.89125 7.25545 3.15992 7.33685C3.23812 7.36056 3.32571 7.39181 3.3546 7.40634C3.53165 7.49535 3.64686 7.75928 3.69697 8.19071C3.75922 8.72669 3.93991 9.12428 4.25064 9.4089C4.39907 9.54489 4.43782 9.57173 4.59126 9.64485C4.87777 9.78134 5.16734 9.80443 5.37305 9.70721C5.66815 9.56771 5.73595 9.27191 5.54247 8.96785C5.45926 8.83707 5.44603 8.79922 5.44603 8.6919C5.44603 8.53369 5.49119 8.43177 5.59431 8.35717C5.73768 8.25343 5.81751 8.16158 5.89091 8.01589C5.9583 7.88211 5.96242 7.85926 5.9618 7.62255C5.96124 7.4014 5.95339 7.35158 5.89639 7.20735C5.80645 6.97971 5.64069 6.7446 5.43567 6.55385C5.33999 6.46485 5.26173 6.3843 5.26173 6.37486C5.26173 6.31841 5.33017 6.35154 5.53105 6.50517C6.27816 7.07654 6.76543 8.01478 6.92077 9.18111C7.04525 10.1158 6.71573 11.2318 6.18711 11.6658C6.05948 11.7706 5.81106 11.8909 5.61882 11.941C5.43825 11.9881 4.85427 12.0066 4.61891 11.9728C3.24102 11.7747 1.85979 10.8503 1.26977 9.73132C0.947627 9.12034 0.842133 8.63873 0.869549 7.90405C0.92286 6.47573 1.38077 5.20953 2.10437 4.48975C2.30411 4.29105 2.57663 4.09942 2.64607 4.10886C2.67796 4.11319 2.71652 4.16059 2.76682 4.25726ZM23.7109 4.18323C23.9029 4.29857 24.2252 4.62393 24.4091 4.88804C24.6481 5.23127 24.906 5.75613 25.0066 6.1038C25.017 6.13986 25.0421 6.22344 25.0624 6.28955C25.2447 6.88551 25.36 7.90914 25.3048 8.44189C25.1657 9.7835 24.2567 10.9356 22.8171 11.5949C22.2033 11.876 21.7045 11.9922 21.1122 11.9923C20.7301 11.9924 20.508 11.9512 20.2647 11.8353C19.7228 11.577 19.3624 10.91 19.2539 9.96424C19.2203 9.67183 19.2192 9.58945 19.2448 9.31959C19.2738 9.01453 19.3541 8.58983 19.4232 8.37646C19.5884 7.86603 19.739 7.55422 20.0035 7.17457C20.2532 6.8161 20.8767 6.25764 20.9017 6.37005C20.907 6.39391 20.8563 6.45578 20.7626 6.53978C20.4346 6.8337 20.2767 7.10314 20.2145 7.47505C20.1601 7.80004 20.2619 8.06681 20.5377 8.32183C20.7014 8.47329 20.7161 8.49425 20.7311 8.59798C20.7506 8.73347 20.7233 8.83683 20.6319 8.97336C20.5942 9.02968 20.5505 9.11755 20.5347 9.16866C20.4714 9.3732 20.61 9.63331 20.8301 9.72277C21.0155 9.79816 21.3389 9.76656 21.584 9.64909C22.0762 9.41319 22.3956 8.90829 22.4719 8.24535C22.5084 7.92787 22.5724 7.69597 22.6607 7.56036C22.7175 7.47321 22.8746 7.36032 22.9391 7.36032C22.9643 7.36032 23.059 7.32656 23.1495 7.28528C23.447 7.14957 23.664 6.87891 23.7509 6.53506C23.8075 6.31133 23.7878 5.94268 23.7085 5.74168C23.6327 5.54953 23.6016 5.49506 23.4716 5.32804C23.3419 5.16135 23.3003 5.06104 23.2837 4.87514C23.2573 4.57784 23.4193 4.1043 23.5475 4.1043C23.5651 4.1043 23.6387 4.13981 23.7109 4.18323ZM13.2347 4.99046C13.3722 5.08617 13.6953 5.40963 13.8912 5.64756C14.5327 6.42682 15.2677 7.73627 15.6768 8.82896C15.8148 9.19753 15.9751 9.7665 16.0418 10.1247C16.2669 11.334 15.9378 12.2566 15.0916 12.7882C14.394 13.2266 13.599 13.4195 12.7757 13.3504C12.3441 13.3142 12.1531 13.2732 11.8162 13.1445C11.3611 12.9708 11.0515 12.7964 10.7896 12.5664C10.5056 12.317 10.3342 12.056 10.2008 11.6698C10.0833 11.3297 10.043 10.9873 10.0767 10.6163C10.1237 10.0986 10.2062 9.72048 10.4081 9.09759C10.6466 8.36182 11.1836 7.25857 11.6526 6.54085C11.7233 6.43268 11.7977 6.31594 11.818 6.28144C11.8758 6.18299 12.2374 5.70567 12.3911 5.52488C12.6506 5.21982 12.9968 4.918 13.0917 4.91413C13.109 4.91341 13.1734 4.94778 13.2347 4.99046ZM7.30365 12.8617C7.39194 13.0295 7.60986 13.4 7.69381 13.525C7.92751 13.873 8.30101 14.1398 8.75989 14.2864C9.04988 14.379 9.25324 14.4022 9.68659 14.3919L10.0912 14.3823L10.1425 14.5322C10.1708 14.6147 10.1876 14.6917 10.18 14.7034C10.172 14.7157 10.0064 14.7246 9.78442 14.7246C8.3015 14.7246 7.44006 14.1534 7.23046 13.031C7.17028 12.7088 7.19415 12.6536 7.30365 12.8617ZM18.9924 12.7634C18.9916 12.8376 18.8984 13.2662 18.8568 13.3875C18.6949 13.8586 18.3409 14.24 17.8622 14.4586C17.4629 14.641 17.0012 14.7246 16.3934 14.7246C16.18 14.7246 15.9997 14.7193 15.9928 14.7127C15.9859 14.7061 16.0039 14.6299 16.0329 14.5433L16.0855 14.3859L16.4851 14.3931C17.0308 14.4029 17.3516 14.3456 17.7133 14.1736C18.1668 13.9581 18.4565 13.6419 18.8102 12.9764C18.9198 12.7703 18.9429 12.736 18.9725 12.736C18.9836 12.736 18.9925 12.7483 18.9924 12.7634ZM11.2064 13.787C11.8043 14.0617 12.3674 14.1785 13.0927 14.1781C13.7855 14.1778 14.34 14.066 14.9229 13.8092C15.0351 13.7598 15.1411 13.7194 15.1586 13.7194C15.2071 13.7194 15.2259 13.8169 15.2259 14.069C15.2259 14.2805 15.2209 14.3066 15.1619 14.4017C14.9861 14.6854 14.6227 14.8482 13.9242 14.9563C13.5849 15.0088 12.6129 15.009 12.2539 14.9566C11.5563 14.8549 11.1333 14.6541 10.992 14.3579C10.9085 14.1828 10.9348 13.7194 11.0282 13.7194C11.0453 13.7194 11.1255 13.7498 11.2064 13.787ZM11.5167 15.6422C11.678 15.6884 11.8034 15.715 12.1042 15.7667C12.2824 15.7973 12.4641 15.8043 13.0833 15.8042C13.7671 15.8042 13.8714 15.7994 14.12 15.7562C14.5141 15.6877 14.5868 15.6721 14.7421 15.6225C14.9081 15.5694 14.9244 15.5806 14.9487 15.7647C15.0033 16.1794 14.7714 16.395 14.097 16.5566C13.647 16.6644 12.6382 16.6651 12.0926 16.5579C11.7308 16.4868 11.4356 16.3407 11.3101 16.1705C11.2439 16.0807 11.2402 16.0645 11.2402 15.8624C11.2402 15.6375 11.2686 15.561 11.3418 15.5887C11.362 15.5963 11.4407 15.6204 11.5167 15.6422ZM12.2078 17.407C12.5034 17.455 13.6266 17.4612 13.9127 17.4164C14.1537 17.3787 14.4066 17.327 14.4706 17.3025C14.5069 17.2886 14.5314 17.2922 14.5553 17.315C14.6098 17.3666 14.6614 17.5712 14.6614 17.7351C14.6614 17.9469 14.5812 18.059 14.3388 18.1855C14.1151 18.3024 13.5674 18.3947 13.0948 18.3952C12.8706 18.3954 12.3216 18.3427 12.1848 18.3078C11.7139 18.1877 11.5058 18.0069 11.5053 17.7175C11.5051 17.6216 11.5658 17.3954 11.6082 17.334L11.6397 17.2882L11.8086 17.3289C11.9015 17.3513 12.0811 17.3864 12.2078 17.407ZM11.7951 19.048C12.5188 19.2618 13.7567 19.2585 14.4066 19.0409C14.4613 19.0227 14.5216 19.0077 14.5407 19.0077C14.6387 19.0077 15.3612 19.7689 15.6366 20.1625C15.7859 20.3757 15.9657 20.7065 16.0305 20.887C16.099 21.0779 16.1235 21.3102 16.0922 21.4714C16.043 21.7247 15.9271 21.8799 15.6879 22.0129C15.3904 22.1782 14.9156 22.1759 14.4311 22.0067C14.0386 21.8696 13.9106 21.8269 13.8923 21.8268C13.8681 21.8267 13.8851 22.0381 13.9337 22.3402C13.9821 22.6414 13.9796 22.7561 13.9221 22.8687C13.8289 23.0515 13.6526 23.1395 13.285 23.1868C13.142 23.2053 13.0443 23.2049 12.8891 23.1853C12.4993 23.1361 12.306 23.0245 12.2289 22.8044C12.1949 22.7074 12.1928 22.6683 12.2145 22.5373C12.2811 22.1346 12.3183 21.8476 12.3053 21.8353C12.2905 21.8213 12.2728 21.8267 11.8289 21.9781C11.4676 22.1014 11.3095 22.1327 11.0487 22.1324C10.7129 22.132 10.4739 22.0489 10.299 21.8716C10.1254 21.6955 10.0888 21.596 10.0897 21.3022C10.0904 21.085 10.0992 21.0272 10.1546 20.8761C10.3314 20.3937 10.7746 19.7906 11.355 19.2426C11.4918 19.1134 11.6162 19.0077 11.6313 19.0077C11.6464 19.0077 11.7202 19.0258 11.7951 19.048Z" fill="#E81E25"/>
</svg>
