<svg width="25" height="25" viewBox="0 0 25 25" fill="none" xmlns="http://www.w3.org/2000/svg">
<path d="M18.801 4.02868C18.7133 4.02891 18.6272 4.00559 18.5516 3.96118C16.4713 2.84743 14.6727 2.37493 12.5165 2.37493C10.371 2.37493 8.33382 2.90368 6.48085 3.96118C6.21882 4.10931 5.89585 4.00618 5.74397 3.73431C5.67618 3.60309 5.66089 3.45098 5.7012 3.30889C5.74151 3.1668 5.83441 3.04538 5.96101 2.96931C7.95946 1.83586 10.219 1.24323 12.5165 1.24993C14.8241 1.24993 16.8398 1.77868 19.0504 2.95993C19.1794 3.03085 19.2754 3.14949 19.3179 3.29041C19.3604 3.43132 19.346 3.58328 19.2777 3.71368C19.2367 3.80627 19.17 3.88515 19.0855 3.94098C19.001 3.99681 18.9023 4.02724 18.801 4.02868ZM3.29522 9.93494C3.18264 9.93414 3.07301 9.89879 2.98116 9.83369C2.86166 9.74487 2.78129 9.61315 2.75698 9.46625C2.73267 9.31936 2.76633 9.16876 2.85085 9.04619C3.92382 7.47119 5.28835 6.23368 6.91444 5.36743C10.3166 3.54681 14.6727 3.53368 18.0857 5.35618C19.7113 6.22243 21.0763 7.44869 22.1493 9.01244C22.2335 9.13512 22.2669 9.28562 22.2426 9.43241C22.2183 9.5792 22.1382 9.7109 22.019 9.79994C21.9611 9.84316 21.895 9.87406 21.8248 9.89073C21.7545 9.90739 21.6816 9.90945 21.6105 9.8968C21.5394 9.88415 21.4717 9.85704 21.4115 9.81716C21.3513 9.77728 21.2999 9.72547 21.2605 9.66494C20.2855 8.24744 19.0504 7.13369 17.5874 6.35743C14.4777 4.70368 10.5008 4.70368 7.40194 6.36868C5.92819 7.15618 4.69304 8.28119 3.71804 9.69681C3.67599 9.7713 3.61437 9.83287 3.53984 9.87484C3.46531 9.91682 3.38072 9.9376 3.29522 9.93494ZM10.0673 23.5156C9.99565 23.5163 9.92472 23.5015 9.8593 23.4724C9.79387 23.4433 9.73546 23.4005 9.68804 23.3468C8.74538 22.3662 8.23444 21.7343 7.51022 20.3749C6.76022 18.9912 6.37257 17.3037 6.37257 15.4924C6.37257 12.1512 9.1246 9.42869 12.5057 9.42869C15.8868 9.42869 18.6407 12.1512 18.6407 15.4924C18.6428 15.5649 18.6304 15.6371 18.6041 15.7046C18.5779 15.7722 18.5383 15.8338 18.4878 15.8859C18.4373 15.9379 18.3769 15.9792 18.3101 16.0075C18.2433 16.0357 18.1716 16.0502 18.0991 16.0502C18.0266 16.0502 17.9548 16.0357 17.888 16.0075C17.8212 15.9792 17.7608 15.9379 17.7103 15.8859C17.6598 15.8338 17.6202 15.7722 17.594 15.7046C17.5677 15.6371 17.5553 15.5649 17.5574 15.4924C17.5574 12.7699 15.2924 10.5537 12.508 10.5537C9.72366 10.5537 7.45632 12.7699 7.45632 15.4924C7.45632 17.1124 7.80272 18.6087 8.46366 19.8237C9.15741 21.1174 9.63554 21.6687 10.4685 22.5462C10.5673 22.6554 10.622 22.7974 10.622 22.9446C10.622 23.0919 10.5673 23.2339 10.4685 23.3431C10.3622 23.4504 10.2183 23.5122 10.0673 23.5156ZM17.8368 21.4343C16.5473 21.4343 15.4096 21.0968 14.4777 20.4331C13.6838 19.8766 13.0352 19.1375 12.5865 18.278C12.1379 17.4185 11.9023 16.4638 11.8996 15.4943C11.8966 15.4213 11.9083 15.3483 11.9342 15.2799C11.96 15.2116 11.9995 15.1491 12.0501 15.0963C12.1007 15.0436 12.1615 15.0016 12.2287 14.9729C12.296 14.9442 12.3684 14.9294 12.4415 14.9294C12.5146 14.9294 12.587 14.9442 12.6542 14.9729C12.7215 15.0016 12.7822 15.0436 12.8329 15.0963C12.8835 15.1491 12.9229 15.2116 12.9488 15.2799C12.9746 15.3483 12.9864 15.4213 12.9833 15.4943C12.9852 16.2818 13.1772 17.0572 13.5432 17.7545C13.9092 18.4519 14.4382 19.0504 15.0852 19.4993C15.8544 20.0393 16.754 20.2962 17.8377 20.2962C18.2152 20.2895 18.5914 20.2519 18.9627 20.1837C19.2552 20.1274 19.5369 20.3299 19.5908 20.6449C19.6183 20.7903 19.587 20.9406 19.5038 21.063C19.4206 21.1853 19.2922 21.2696 19.1469 21.2974C18.7153 21.3827 18.2767 21.4279 17.8368 21.4324V21.4343ZM15.6585 23.7499C15.6109 23.748 15.5637 23.7404 15.5179 23.7274C13.7948 23.2324 12.6679 22.5687 11.4866 21.3649C9.96929 19.8012 9.13538 17.7199 9.13538 15.4924C9.13538 13.6699 10.6307 12.1849 12.4724 12.1849C14.3141 12.1849 15.8099 13.6699 15.8099 15.4924C15.8099 16.6962 16.8177 17.6749 18.0637 17.6749C19.3096 17.6749 20.3174 16.6962 20.3174 15.4924C20.3174 11.2512 16.7957 7.80869 12.4616 7.80869C9.38429 7.80869 6.5671 9.58619 5.2996 12.3424C4.87772 13.2537 4.66022 14.3224 4.66022 15.4924C4.66022 16.3699 4.73569 17.7537 5.38585 19.5537C5.4946 19.8462 5.35351 20.1724 5.07179 20.2737C5.00484 20.2992 4.93342 20.3109 4.86183 20.3081C4.79025 20.3053 4.71996 20.288 4.65521 20.2574C4.59045 20.2267 4.53256 20.1833 4.48501 20.1297C4.43746 20.0761 4.40123 20.0135 4.37851 19.9456C3.85569 18.5191 3.58786 17.0117 3.58726 15.4924C3.58726 14.1424 3.83663 12.9143 4.32413 11.8474C5.76554 8.70681 8.96194 6.67243 12.4616 6.67243C17.3919 6.67243 21.4012 10.6212 21.4012 15.4812C21.4012 17.3037 19.9058 18.7887 18.0637 18.7887C16.2215 18.7887 14.7262 17.3037 14.7262 15.4812C14.7266 14.2774 13.7188 13.2968 12.4729 13.2968C11.2269 13.2968 10.2191 14.2756 10.2191 15.4793C10.2191 17.4012 10.9344 19.2031 12.2455 20.5531C13.2768 21.6106 14.2612 22.1937 15.7888 22.6343C16.0813 22.7131 16.244 23.0281 16.168 23.3206C16.1444 23.4393 16.0811 23.5465 15.9885 23.6245C15.8959 23.7025 15.7795 23.7467 15.6585 23.7499Z" fill="white"/>
</svg>
