<svg width="33" height="39" viewBox="0 0 33 39" fill="none" xmlns="http://www.w3.org/2000/svg">
<path fill-rule="evenodd" clip-rule="evenodd" d="M1 16.3045C1.02881 7.82335 7.92752 0.971366 16.4087 1.00009C24.8899 1.029 31.7419 7.9277 31.7131 16.4089V16.5828C31.6087 22.0958 28.5304 27.1915 24.7565 31.1741C22.5982 33.4154 20.188 35.3995 17.5739 37.0871C16.8749 37.6918 15.8381 37.6918 15.1391 37.0871C11.2421 34.5506 7.82187 31.3482 5.03478 27.6263C2.5507 24.3807 1.14033 20.4414 1 16.3567V16.3045Z" stroke="#E81E25" stroke-width="1.5" stroke-linecap="round" stroke-linejoin="round"/>
<path opacity="0.4" d="M16.3566 21.5219C19.0748 21.5219 21.2783 19.3184 21.2783 16.6002C21.2783 13.882 19.0748 11.6784 16.3566 11.6784C13.6384 11.6784 11.4348 13.882 11.4348 16.6002C11.4348 19.3184 13.6384 21.5219 16.3566 21.5219Z" stroke="#E81E25" stroke-width="1.5" stroke-linecap="round" stroke-linejoin="round"/>
</svg>
