<svg width="24" height="25" viewBox="0 0 24 25" fill="none" xmlns="http://www.w3.org/2000/svg">
<path d="M18.9042 2H13.1419C12.9627 1.99987 12.7909 2.07065 12.6638 2.19688L1.14375 13.7141C0.891571 13.9675 0.75 14.3105 0.75 14.668C0.75 15.0255 0.891571 15.3685 1.14375 15.6219L6.62813 21.1063C6.88163 21.3585 7.22468 21.5 7.58227 21.5C7.93986 21.5 8.28291 21.3585 8.53641 21.1063L20.0531 9.59375C20.1794 9.46665 20.2501 9.29476 20.25 9.11563V3.35C20.2509 3.17283 20.2167 2.99724 20.1494 2.83333C20.0821 2.66943 19.9831 2.52045 19.858 2.39497C19.7329 2.26949 19.5843 2.17 19.4206 2.10221C19.2569 2.03443 19.0814 1.99969 18.9042 2V2Z" stroke="#E81E25" stroke-linecap="round" stroke-linejoin="round"/>
<path d="M16.5 6.75C16.3022 6.75 16.1089 6.69135 15.9444 6.58147C15.78 6.47159 15.6518 6.31541 15.5761 6.13268C15.5004 5.94996 15.4806 5.74889 15.5192 5.55491C15.5578 5.36093 15.653 5.18275 15.7929 5.04289C15.9327 4.90304 16.1109 4.8078 16.3049 4.76922C16.4989 4.73063 16.7 4.75043 16.8827 4.82612C17.0654 4.90181 17.2216 5.02998 17.3315 5.19443C17.4413 5.35888 17.5 5.55222 17.5 5.75C17.5 6.01522 17.3946 6.26957 17.2071 6.45711C17.0196 6.64464 16.7652 6.75 16.5 6.75Z" stroke="#E81E25"/>
<path d="M10.7812 23L23.0625 10.7188C23.1236 10.6572 23.1716 10.5839 23.2038 10.5034C23.236 10.4229 23.2517 10.3367 23.25 10.25V4.25" stroke="#E81E25" stroke-linecap="round" stroke-linejoin="round"/>
</svg>
