<svg width="14" height="17" viewBox="0 0 14 17" fill="none" xmlns="http://www.w3.org/2000/svg">
<path fill-rule="evenodd" clip-rule="evenodd" d="M6.62436 0.0104338C6.40585 0.0233889 6.08078 0.0598419 5.88345 0.0934953C5.8101 0.106004 5.73008 0.118869 5.70563 0.122101C5.64543 0.130052 5.46319 0.17063 5.32777 0.206249C5.26664 0.222332 5.19996 0.238652 5.17959 0.242538C5.15921 0.246425 5.11253 0.258933 5.07586 0.270325C5.03919 0.281731 4.95416 0.307999 4.88691 0.328712C4.48133 0.453632 3.91635 0.699615 3.54834 0.911513C2.98719 1.23462 2.52685 1.58851 2.05869 2.05673C1.65187 2.46359 1.32371 2.87184 1.06448 3.2936C1.04182 3.33045 0.913006 3.54646 0.878406 3.60561C0.815962 3.71237 0.555325 4.25831 0.50518 4.38739C0.474951 4.4652 0.440958 4.55231 0.429637 4.58098C0.418316 4.60964 0.395096 4.6733 0.37804 4.72244C0.348908 4.8064 0.330563 4.86541 0.260043 5.10216C0.211869 5.2639 0.129184 5.60779 0.118604 5.69048C0.115447 5.71511 0.103089 5.78212 0.0911308 5.83939C0.0791577 5.89665 0.0653175 5.98035 0.0603535 6.02539C0.0553894 6.07044 0.0403341 6.18771 0.0268644 6.28599C-0.00920301 6.54944 -0.00887701 7.52707 0.0273831 7.81975C0.0709929 8.17173 0.123316 8.45799 0.2016 8.77277C0.229355 8.88439 0.24478 8.9387 0.317953 9.18227C0.350093 9.28925 0.397971 9.42968 0.429637 9.50987C0.440958 9.53853 0.474951 9.62565 0.50518 9.70345C0.604862 9.96004 0.889549 10.5247 1.01813 10.7208C1.04938 10.7685 1.07495 10.8099 1.07495 10.813C1.07495 10.816 1.12525 10.8934 1.1867 10.985C1.50391 11.4577 1.9941 12.0228 2.1715 12.1202C2.20817 12.1403 2.28612 12.1653 2.34472 12.1757C2.47246 12.1985 2.59602 12.1789 2.71041 12.1178C2.81016 12.0646 2.93158 11.9257 2.97103 11.8197C3.01376 11.7049 3.01442 11.5413 2.97258 11.4298C2.93379 11.3265 2.90906 11.2898 2.80071 11.1743C2.24267 10.5798 1.86536 10.0114 1.58703 9.34607C1.56475 9.29283 1.53476 9.22247 1.52039 9.18971C1.46746 9.06914 1.27946 8.44923 1.26073 8.33349C1.25608 8.30482 1.24246 8.23446 1.23044 8.17713C1.20221 8.04237 1.16696 7.81418 1.15682 7.70062C1.10773 7.15061 1.1076 6.98166 1.1558 6.39022C1.16306 6.30109 1.20052 6.06098 1.2313 5.90627C1.24353 5.84484 1.25701 5.77448 1.26128 5.74991C1.26881 5.7066 1.30274 5.57986 1.35019 5.41782C1.36292 5.37441 1.37566 5.3275 1.37853 5.31358C1.38654 5.2748 1.48714 4.98404 1.51865 4.90858C1.6836 4.51374 1.70193 4.47471 1.84723 4.2087C2.24371 3.48294 2.78998 2.84836 3.45327 2.34305C3.67129 2.17696 3.66412 2.18207 3.81632 2.08408C3.96903 1.98576 4.00757 1.96295 4.209 1.85158C4.91889 1.45908 5.81177 1.19944 6.59131 1.15884C7.48655 1.1122 8.20881 1.21353 9.00268 1.49713C9.28188 1.59688 9.66577 1.77513 9.87023 1.89994C9.92448 1.93307 9.97141 1.96018 9.9745 1.96018C9.98202 1.96018 10.1214 2.04903 10.2844 2.15775C10.7862 2.49238 11.2934 2.97618 11.6832 3.49214C11.9879 3.89552 12.2776 4.40992 12.4555 4.8639C12.5364 5.07026 12.6808 5.51406 12.6978 5.60845C12.7015 5.62892 12.7147 5.68923 12.7272 5.74247C12.762 5.89041 12.8069 6.14583 12.8358 6.36044C12.873 6.63682 12.8732 7.43665 12.8361 7.72296C12.8083 7.93806 12.7642 8.19117 12.7272 8.34838C12.7147 8.40161 12.7015 8.46192 12.6978 8.4824C12.6816 8.57258 12.5391 9.01263 12.4591 9.2195C12.3816 9.42003 12.2085 9.77569 12.0822 9.99388C11.9069 10.2969 11.7936 10.4608 11.5162 10.8128C11.439 10.9107 10.5057 11.86 8.79319 13.5825L6.18756 16.2033L6.58367 16.6017C6.80154 16.8207 6.98656 17 6.99484 17C7.00311 17 8.16397 15.8391 9.57451 14.4201C12.3008 11.6776 12.3787 11.5956 12.7325 11.0958C12.8223 10.9688 13.0629 10.5892 13.0629 10.5743C13.0629 10.5717 13.0969 10.5103 13.1386 10.438C13.2379 10.2655 13.3093 10.1194 13.412 9.87854C13.4584 9.76995 13.5049 9.66101 13.5155 9.63644C13.6372 9.3536 13.7909 8.83145 13.8684 8.43772C13.9662 7.9408 14 7.58307 14 7.04542C14 6.44289 13.9475 5.96497 13.824 5.44465C13.8114 5.39141 13.7985 5.33462 13.7952 5.31845C13.7812 5.24816 13.7221 5.04749 13.6395 4.78979C13.5061 4.37372 13.2401 3.80629 12.96 3.34003C12.8883 3.22066 12.6412 2.85679 12.6196 2.83874C12.6148 2.83464 12.5732 2.78065 12.5274 2.71876C12.4816 2.65686 12.4348 2.59655 12.4235 2.58475C12.4122 2.57292 12.3497 2.49975 12.2846 2.42214C12.0225 2.1094 11.5968 1.71062 11.215 1.42002C11.0747 1.31327 10.6712 1.03694 10.6556 1.03694C10.6515 1.03694 10.6124 1.01404 10.5689 0.986027C10.3889 0.870339 10.1041 0.723307 9.82508 0.60199C9.57147 0.491738 9.51115 0.467242 9.49956 0.469848C9.49505 0.470861 9.47289 0.46209 9.45032 0.450356C9.39534 0.421795 9.13699 0.335354 8.93599 0.278277C8.84634 0.252828 8.73965 0.22254 8.6989 0.210985C8.65815 0.199429 8.59814 0.185551 8.56554 0.180146C8.53294 0.17474 8.46691 0.16049 8.41881 0.148473C8.37071 0.136441 8.3107 0.123992 8.28545 0.12082C8.2602 0.117633 8.17953 0.104961 8.10618 0.0926615C7.62152 0.0114017 7.09777 -0.0176653 6.62436 0.0104338ZM5.46202 3.94341C5.45195 3.97057 5.43113 4.02294 5.41574 4.05979C5.40038 4.09665 5.28367 4.39149 5.1564 4.71499C5.02912 5.0385 4.85494 5.48076 4.7693 5.69779C4.68368 5.91483 4.57133 6.19962 4.51963 6.33066C4.46794 6.4617 4.32253 6.83025 4.19651 7.14966C3.85858 8.00609 3.71764 8.36663 3.70608 8.40422C3.69589 8.43734 3.69269 8.43772 3.43005 8.43772H3.16432V8.77277V9.10781H4.51277H5.86122V8.77277V8.43772H5.66859C5.48428 8.43772 5.47595 8.4364 5.47595 8.4072C5.47595 8.39042 5.48566 8.35782 5.49753 8.33475C5.5094 8.31169 5.52202 8.27666 5.52558 8.25692C5.52915 8.23717 5.54324 8.19439 5.55692 8.16184C5.57059 8.1293 5.61118 8.01557 5.64713 7.9091C5.76375 7.56367 5.8479 7.32859 5.85897 7.31733C5.86493 7.31129 5.9456 7.4319 6.03824 7.58537C6.49111 8.33565 6.71736 8.71017 6.79151 8.83233C6.83624 8.90604 6.89941 9.01195 6.93187 9.06767C6.98465 9.15828 6.99281 9.16616 7.00898 9.14212C7.01892 9.12735 7.06914 9.0449 7.12056 8.95891C7.17198 8.87291 7.22878 8.7791 7.24677 8.75043C7.26474 8.72177 7.31601 8.63801 7.36069 8.5643C7.40537 8.49059 7.51066 8.31694 7.59467 8.17841C7.67867 8.0399 7.7549 7.91258 7.76405 7.89549C7.7732 7.87841 7.79341 7.84432 7.80894 7.81975C7.82448 7.79518 7.85843 7.74157 7.88436 7.70062C7.91031 7.65967 7.93415 7.61912 7.93735 7.61053C7.94977 7.57719 8.1215 7.30616 8.13026 7.30609C8.13534 7.30604 8.15982 7.368 8.18464 7.44375C8.25286 7.65197 8.49102 8.337 8.52114 8.41166C8.53086 8.43573 8.51619 8.43772 8.33003 8.43772H8.1284V8.77277V9.10781H9.47686H10.8253V8.77277V8.43772L10.5623 8.43771H10.2993L10.2441 8.29997C10.2138 8.22422 10.1116 7.96456 10.0169 7.72296C9.92225 7.48135 9.78933 7.14296 9.72155 6.97097C9.65376 6.79898 9.5337 6.49409 9.45475 6.29343C9.37581 6.09278 9.26241 5.80464 9.20273 5.65312C9.14306 5.50161 9.01649 5.17996 8.92144 4.93836C8.55668 4.01107 8.51005 3.89649 8.5 3.90272C8.49431 3.90627 8.4767 3.93627 8.46091 3.96942C8.44511 4.00255 8.42718 4.02974 8.42106 4.02985C8.41494 4.02994 8.40995 4.03563 8.40995 4.04248C8.40995 4.04933 8.29992 4.24758 8.16545 4.48307C8.03097 4.71854 7.92095 4.91357 7.92095 4.91647C7.92095 4.91937 7.89527 4.96402 7.86387 5.01567C7.83248 5.06734 7.70308 5.29388 7.57629 5.5191C7.44951 5.74433 7.3335 5.95005 7.31849 5.97626C7.10476 6.34927 7.03688 6.46844 7.02445 6.49237C7.0163 6.50805 7.00323 6.52079 6.99542 6.52067C6.98192 6.52043 6.88752 6.36178 6.67496 5.98218C6.62268 5.8888 6.56396 5.78494 6.54447 5.75137C6.52497 5.71781 6.49766 5.67025 6.48375 5.64568C6.38531 5.47171 6.22025 5.18209 6.20081 5.14924C6.1879 5.12744 6.14382 5.0493 6.10283 4.97559C6.06185 4.90188 5.93654 4.68075 5.8244 4.48419C5.71224 4.28763 5.59722 4.08325 5.56882 4.03001C5.49502 3.8918 5.48438 3.88316 5.46202 3.94341Z" fill="white"/>
</svg>
