<svg width="26" height="26" viewBox="0 0 26 26" fill="none" xmlns="http://www.w3.org/2000/svg">
<path d="M13 0C5.82024 0 0 5.82024 0 13C0 20.1798 5.82024 26 13 26C20.1798 26 26 20.1798 26 13C26 5.82024 20.1798 0 13 0Z" fill="#40B3E0"/>
<path d="M19.3256 7.47805L17.0036 19.1851C17.0036 19.1851 16.6789 19.997 15.7858 19.6073L10.4276 15.4993L8.47923 14.5576L5.19937 13.4534C5.19937 13.4534 4.69602 13.2748 4.64727 12.8851C4.59852 12.4954 5.21562 12.2844 5.21562 12.2844L18.2538 7.16971C18.2538 7.16971 19.3255 6.69886 19.3255 7.47825" fill="white"/>
<path d="M10.0159 19.0534C10.0159 19.0534 9.85948 19.0388 9.66448 18.4217C9.46979 17.8047 8.47925 14.5574 8.47925 14.5574L16.3542 9.55643C16.3542 9.55643 16.8089 9.28039 16.7926 9.55643C16.7926 9.55643 16.8738 9.60518 16.6301 9.83248C16.3867 10.0599 10.444 15.4018 10.444 15.4018" fill="#D2E5F1"/>
<path d="M12.4821 17.0742L10.3628 19.0065C10.3628 19.0065 10.1971 19.1322 10.0159 19.0534L10.4217 15.4642" fill="#B5CFE4"/>
</svg>
