<svg width="27" height="26" viewBox="0 0 27 26" fill="none" xmlns="http://www.w3.org/2000/svg">
<g clip-path="url(#clip0_28_821)">
<rect x="4.41284" y="2.70328" width="18.3871" height="16.9161" fill="white"/>
<path d="M23.329 19.7701C22.1419 20.7622 20.4215 21.4738 18.1677 21.9048C15.914 22.3358 13.5914 22.4618 11.2 22.2829L6.65806 25.5033V21.4778C5.16129 21.0387 3.9914 20.4695 3.14839 19.7701C2.15054 18.9406 1.37634 17.7492 0.825806 16.196C0.275269 14.6428 0 13.057 0 11.4387C0 9.82037 0.275269 8.2346 0.825806 6.68135C1.37634 5.1281 2.15484 3.93267 3.16129 3.09506C4.16774 2.25744 5.6086 1.615 7.48387 1.16773C9.35914 0.720461 11.2774 0.496826 13.2387 0.496826C15.2 0.496826 17.1183 0.720461 18.9935 1.16773C20.8688 1.615 22.3097 2.25744 23.3161 3.09506C24.3226 3.93267 25.1011 5.1281 25.6516 6.68135C26.2022 8.2346 26.4774 9.82037 26.4774 11.4387C26.4774 13.057 26.2022 14.6428 25.6516 16.196C25.1011 17.7492 24.3269 18.9406 23.329 19.7701ZM16.4903 13.7929L18.1677 14.0613C18.0301 12.1096 17.2344 10.4425 15.7806 9.06001C14.3269 7.67754 12.5677 6.92125 10.5032 6.79113L10.7871 8.37691C12.2667 8.55582 13.5398 9.14947 14.6065 10.1579C15.6731 11.1662 16.3011 12.3779 16.4903 13.7929ZM11.071 10.0115L11.3806 11.768C12.0688 12.0933 12.5763 12.5731 12.9032 13.2074L14.7613 13.5002C14.5548 12.6382 14.1161 11.8941 13.4452 11.2679C12.7742 10.6417 11.9828 10.2229 11.071 10.0115ZM8.30968 11.4509V9.88949C8.30968 9.613 8.20215 9.3365 7.9871 9.06001C7.77204 8.78352 7.54409 8.58428 7.30323 8.4623C7.06237 8.34031 6.88172 8.32811 6.76129 8.4257L5.57419 9.57234C4.90323 10.2066 4.8043 11.1947 5.27742 12.5365C5.75054 13.8783 6.65376 15.1795 7.9871 16.44C9.32043 17.7005 10.6968 18.5543 12.1161 19.0016C13.5355 19.4489 14.572 19.3554 15.2258 18.721L16.4387 17.5744C16.5591 17.4768 16.5548 17.3101 16.4258 17.0743C16.2968 16.8384 16.086 16.6229 15.7935 16.4278C15.5011 16.2326 15.2086 16.135 14.9161 16.135H13.2645L12.3097 16.9157C11.5527 16.7205 10.6108 16.0903 9.48387 15.025C8.35699 13.9596 7.69032 13.061 7.48387 12.3291L8.30968 11.4509ZM9.96129 3.64398L10.2194 5.22975C11.9398 5.26228 13.5312 5.68922 14.9935 6.51057C16.4559 7.33192 17.6172 8.42977 18.4774 9.80411C19.3376 11.1784 19.7935 12.6788 19.8452 14.3053L21.5226 14.5736C21.5226 13.0936 21.2172 11.6786 20.6065 10.3286C19.9957 8.97869 19.1742 7.81579 18.1419 6.83993C17.1097 5.86406 15.8796 5.08744 14.4516 4.51006C13.0237 3.93267 11.5269 3.64398 9.96129 3.64398Z" fill="#665CAC"/>
</g>
<defs>
<clipPath id="clip0_28_821">
<rect width="26.4774" height="25.0065" fill="white" transform="translate(0 0.496826)"/>
</clipPath>
</defs>
</svg>
